# xmcd
#
# Track frame offsets:
#	150
#	23434
#	40580
#	57715
#	83676
#	102513
#	117075
#	134330
#	148925
#	165669
#	179817
#	203209
#	213833
#
# Disc length: 3181 seconds
#
# Revision: 0
# Processed by: cddbd v1.5.2PL0 Copyright (c) Steve Scherf et al.
# Submitted via: EasyCDDAExtractor 15.3.0.1
#
DISCID=b90c6b0d
DTITLE=Li'l Al's Combo - Ain't Gonna Worry
DYEAR=1998
DGENRE=Blues
TTITLE0=I Ain't Gonna Worry
TTITLE1=I'm Loved by You
TTITLE2=How Long
TTITLE3=3 O'Clock
TTITLE4=Hey There Mama
TTITLE5=Didn't Come Home First
TTITLE6=Into My Arms
TTITLE7=I Can't Help It
TTITLE8=Come on
TTITLE9=Special
TTITLE10=Knock on Your Door
TTITLE11=What's Going on
TTITLE12=Fools Heart Attack
EXTD=
EXTT0=
EXTT1=
EXTT2=
EXTT3=
EXTT4=
EXTT5=
EXTT6=
EXTT7=
EXTT8=
EXTT9=
EXTT10=
EXTT11=
EXTT12=
PLAYORDER=
